<svg id="Layer_1" data-name="Layer 1" xmlns="http://www.w3.org/2000/svg" xmlns:xlink="http://www.w3.org/1999/xlink" viewBox="0 0 239.89 68.78"><defs><style>.cls-1{fill:url(#linear-gradient);}.cls-2{fill:url(#linear-gradient-2);}.cls-3{fill:url(#linear-gradient-3);}.cls-4{fill:url(#linear-gradient-4);}.cls-5{fill:url(#linear-gradient-5);}.cls-6{fill:url(#linear-gradient-6);}.cls-7{fill:url(#linear-gradient-7);}.cls-8{fill:#fff;stroke:#fff;stroke-miterlimit:10;stroke-width:0.25px;}</style><linearGradient id="linear-gradient" x1="-468.95" y1="115.97" x2="-467.95" y2="115.97" gradientTransform="matrix(10.93, 1.68, -5.1, 3.6, 5726.42, 373.55)" gradientUnits="userSpaceOnUse"><stop offset="0" stop-color="#41e296"/><stop offset="1" stop-color="#00c4ee"/></linearGradient><linearGradient id="linear-gradient-2" x1="-485.73" y1="123.8" x2="-484.73" y2="123.8" gradientTransform="matrix(18.45, 1.68, -8.61, 3.6, 10037.74, 382.17)" xlink:href="#linear-gradient"/><linearGradient id="linear-gradient-3" x1="-494.65" y1="127.9" x2="-493.65" y2="127.9" gradientTransform="matrix(29.03, 1.68, -13.53, 3.6, 16097.61, 390.79)" xlink:href="#linear-gradient"/><linearGradient id="linear-gradient-4" x1="-485.73" y1="123.8" x2="-484.73" y2="123.8" gradientTransform="matrix(18.45, 1.68, -8.61, 3.6, 10037.74, 399.4)" xlink:href="#linear-gradient"/><linearGradient id="linear-gradient-5" x1="-468.95" y1="115.97" x2="-467.95" y2="115.97" gradientTransform="matrix(10.93, 1.68, -5.1, 3.6, 5726.42, 408.02)" xlink:href="#linear-gradient"/><linearGradient id="linear-gradient-6" x1="-419.46" y1="3.6" x2="-418.46" y2="3.6" gradientTransform="matrix(3.6, 17.93, -1.68, 38.45, 1515.74, 7391.79)" xlink:href="#linear-gradient"/><linearGradient id="linear-gradient-7" x1="193.16" y1="57.92" x2="239.89" y2="57.92" gradientTransform="matrix(1, 0, 0, 1, 0, 0)" xlink:href="#linear-gradient"/></defs><g id="c32d7929-c758-99d9-443c-1ff065e055ec"><path d="M126.52,35.48l-6.1,20.3-5.8-20.3h-3.47l-5.82,20.3-6.11-20.3H94.83l8.62,26.13H107l5.94-20.13,5.91,20.13h3.5l8.59-26.13ZM151,52c0-5.52-3.72-9.35-9.12-9.35a9.42,9.42,0,0,0-9.55,9.3c0,.15,0,.29,0,.44,0,5.49,4,9.72,10,9.72a10,10,0,0,0,7.56-3L147.2,56.9a6.15,6.15,0,0,1-4.85,2c-3.47,0-5.57-2.41-5.85-5.71H151Zm-9.12-6.16c2.91,0,4.78,1.73,5.2,4.67H136.69c.56-2.85,2.49-4.72,5.21-4.72ZM165,42.6a7.7,7.7,0,0,0-6.13,2.68V33.86h-4V61.61h3.22l.48-2.52a7.77,7.77,0,0,0,6.38,3c4.82,0,8.66-3.67,8.66-9.72S169.84,42.6,165,42.6Zm-1,16.12c-3.47,0-5.71-2.74-5.71-6.38s2.24-6.41,5.71-6.41,5.57,2.8,5.57,6.41-2.14,6.38-5.5,6.38Zm22,3.42c4.09,0,8.91-2.1,8.91-7.53,0-4.15-3.22-6.55-7.2-7.93s-5.38-2.54-5.38-4.7,1.82-3.56,4.15-3.56a7.32,7.32,0,0,1,5.29,2.33L194.51,38a10.91,10.91,0,0,0-8-3.14c-4.45,0-8.43,2.94-8.43,7.17,0,4.79,3.25,6.47,7.59,8,2.66.95,4.84,2.18,4.84,4.73s-2.43,3.81-4.73,3.81a7.93,7.93,0,0,1-6.5-3.28l-2.94,2.83a12.22,12.22,0,0,0,9.71,4ZM217,52c0-5.52-3.7-9.35-9.1-9.35a9.42,9.42,0,0,0-9.55,9.3c0,.15,0,.29,0,.44,0,5.49,4,9.72,10,9.72a9.91,9.91,0,0,0,7.53-3l-2.71-2.21a6.22,6.22,0,0,1-4.88,2c-3.47,0-5.54-2.41-5.82-5.71H217Zm-9-6.16c2.91,0,4.78,1.73,5.18,4.67H202.74C203.33,47.66,205.23,45.79,208,45.79Zm21.67-3.19a5.11,5.11,0,0,0-4.73,2.94l-.48-2.47H221V61.61h4V52c0-3,1.6-5.71,4.48-5.71a4.22,4.22,0,0,1,1.79.36l1.21-3.39a5.92,5.92,0,0,0-2.83-.66Zm7.64-3.08A2.52,2.52,0,1,0,234.77,37a2.52,2.52,0,0,0,2.54,2.52Zm-1.87,22.09h3.89V43.07h-3.89ZM259.3,43.07l-.53,2.58a7.75,7.75,0,0,0-6.44-3c-4.82,0-8.65,3.72-8.65,9.74s3.83,9.72,8.65,9.72A7.79,7.79,0,0,0,258.74,59l.56,2.61h3.28V43.07Zm-6.05,15.65c-3.33,0-5.54-2.74-5.54-6.38s2.21-6.41,5.54-6.41,5.74,2.8,5.74,6.41-2.27,6.38-5.74,6.38Zm14.39,2.89h3.95V33.86h-3.95Z" transform="translate(-32.93 -26.79)"/></g><g id="dd3b708d-f65d-6e48-498a-f48c308d4368"><rect class="cls-1" x="8.4" y="1.99" width="12.06" height="3.98"/><rect class="cls-2" x="8.4" y="10.6" width="20.36" height="3.98"/><rect class="cls-3" x="8.4" y="19.22" width="32.03" height="3.98"/><rect class="cls-4" x="8.4" y="27.84" width="20.36" height="3.98"/><rect class="cls-5" x="8.4" y="36.45" width="12.06" height="3.98"/><rect class="cls-6" width="3.98" height="42.42"/></g><rect class="cls-7" x="193.16" y="47.05" width="46.73" height="21.73" rx="3.8"/><path class="cls-8" d="M238,90.7l0-12.21h4.55a2.73,2.73,0,0,1,1.67.53,3.58,3.58,0,0,1,1.11,1.38,4.3,4.3,0,0,1,.39,1.81,3.7,3.7,0,0,1-.25,1.34,4.47,4.47,0,0,1-.69,1.2,3.35,3.35,0,0,1-1,.86,2.52,2.52,0,0,1-1.26.33h-2.43V90.7Zm2.09-6.82h2.34a1.08,1.08,0,0,0,.88-.51,1.94,1.94,0,0,0,.38-1.16,1.8,1.8,0,0,0-.4-1.19,1.09,1.09,0,0,0-.81-.47h-2.39Z" transform="translate(-32.93 -26.79)"/><path class="cls-8" d="M247.84,90.7V82h2.08v.64a2.15,2.15,0,0,1,1.63-.68,7.59,7.59,0,0,1,2.1.39l-1,1.79a2.93,2.93,0,0,0-1.3-.14,2.22,2.22,0,0,0-1,.39.81.81,0,0,0-.38.71V90.7Z" transform="translate(-32.93 -26.79)"/><path class="cls-8" d="M258.76,90.92a4.41,4.41,0,0,1-2.21-.54,3.85,3.85,0,0,1-1.48-1.54,4.81,4.81,0,0,1-.53-2.29,4.72,4.72,0,0,1,1.16-3.48,4.08,4.08,0,0,1,3.06-1.18,4.49,4.49,0,0,1,2.19.53A3.58,3.58,0,0,1,262.44,84a5.49,5.49,0,0,1,.54,2.57,4.7,4.7,0,0,1-.54,2.29A3.94,3.94,0,0,1,261,90.38,4.39,4.39,0,0,1,258.76,90.92Zm0-2a2.08,2.08,0,0,0,1.21-.34,2.2,2.2,0,0,0,.75-.88,2.68,2.68,0,0,0,.25-1.15,3.11,3.11,0,0,0-.57-1.88,1.9,1.9,0,0,0-1.64-.77,2,2,0,0,0-1.63.75,3,3,0,0,0-.59,1.9,2.71,2.71,0,0,0,.26,1.17,2.21,2.21,0,0,0,.76.87A2.11,2.11,0,0,0,258.76,88.92Z" transform="translate(-32.93 -26.79)"/></svg>